<?xml version="1.0" encoding="utf-8"?>
<svg version="1.1" xmlns="http://www.w3.org/2000/svg" x="0px" y="0px" viewBox="0 0 224 50" style="enable-background:new 0 0 224 50;" xml:space="preserve">
  <style type="text/css">.b{fill:url(#g)}.a{fill:#fff}</style>
  <g>
    <path d="M61.6,40.6h-5V13.9h5V40.6z"/>
    <path d="M73.8,40.6V13.9h21.5c2,0,3.4,0.4,4.3,1.2c0.9,0.8,1.3,2.1,1.3,4v6c0,1.8-0.4,3.1-1.3,3.9c-0.9,0.8-2.3,1.2-4.3,1.2h-3.5l11.8,10.5h-6.7L86.2,30.1h-7.3v10.5H73.8z M93.1,17.8H78.9v8.6h14.2c1.1,0,1.9-0.2,2.3-0.6c0.4-0.4,0.6-1.1,0.6-2.2v-3.2c0-1-0.2-1.7-0.6-2.1C94.9,18,94.2,17.8,93.1,17.8z"/>
    <path d="M129.9,13.9c2.5,0,4.7,0.2,6.4,0.5c1.7,0.3,3.2,0.9,4.3,1.6c1.8,1.2,3.2,2.7,4.3,4.7c1,2,1.5,4.2,1.5,6.5c0,4.5-1.4,7.9-4.1,10.1c-2.7,2.2-6.9,3.3-12.4,3.3h-15.4V13.9H129.9z M129.4,17.8h-9.8v18.7h9.8c4.3,0,7.4-0.7,9.3-2.2c1.8-1.5,2.8-3.9,2.8-7.2c0-3.3-0.9-5.6-2.8-7.1C136.8,18.6,133.7,17.8,129.4,17.8z"/>
    <path d="M163.3,40.6h-5V13.9h5V40.6z"/>
    <path d="M179.8,19.2c0.1,0.8,0.2,1.6,0.3,2.4c0.1,0.8,0.1,1.6,0.1,2.4v16.6h-4.6V13.9h3.8L199,31.3c0.6,0.5,1.1,1,1.6,1.6c0.5,0.6,1,1.3,1.6,2c-0.1-0.8-0.3-1.6-0.3-2.4c-0.1-0.8-0.1-1.7-0.1-2.6V13.9h4.6v26.7H203l-20-17.7c-0.7-0.7-1.3-1.3-1.8-1.9C180.7,20.4,180.2,19.8,179.8,19.2z"/>
    <path d="M223.7,40.6h-5V13.9h5V40.6z"/>
  </g>
  <linearGradient id="g" gradientUnits="userSpaceOnUse" x1="0" y1="50" x2="50" y2="0"><stop offset="0" style="stop-color:#FF0000"/><stop offset="1" style="stop-color:#9B0F00"/></linearGradient>
  <rect x="0" y="0" class="b" width="50" height="50"/>
  <g><path class="a" d="M23.1,41.2L5.4,8.8h5.8l14.3,27l13.6-27h5.4L27.6,41.2H23.1z"/></g>
</svg>
