<?xml version="1.0" encoding="utf-8"?>
<svg xmlns="http://www.w3.org/2000/svg" viewBox="0 0 300 300" style="enable-background:new 0 0 300 300" xml:space="preserve"><path d="M264.6 164.7c.6-4.8 1.1-9.6 1.1-14.7s-.5-9.9-1.1-14.7l32.5-24.7c2.9-2.2 3.7-6.3 1.9-9.6l-30.8-51.9c-1.4-2.4-4-3.8-6.8-3.8-.9 0-1.9.2-2.6.5l-38.4 15c-8-6-16.7-11-26.1-14.7l-5.9-39.8c-.4-3.6-3.7-6.3-7.5-6.3h-61.7c-3.9 0-7.1 2.7-7.6 6.3l-5.9 39.8c-9.4 3.8-18 8.9-26.1 14.7l-38.4-15c-.9-.3-1.9-.5-2.8-.5-2.6 0-5.2 1.4-6.6 3.8L1.1 101c-2 3.3-1.1 7.3 1.9 9.6l32.5 24.7c-.6 4.8-1.1 9.8-1.1 14.7 0 4.9.5 9.9 1.1 14.7L2.9 189.4C0 191.6-.8 195.7 1 199l30.9 52c1.4 2.4 4 3.8 6.8 3.8.9 0 1.9-.2 2.6-.5l38.4-15c8 6 16.7 10.9 26.1 14.7l5.9 39.7c.5 3.6 3.7 6.3 7.6 6.3H181c3.9 0 7.1-2.7 7.6-6.3l5.9-39.7c9.4-3.8 18-8.9 26.1-14.7l38.4 15c.9.3 1.9.5 2.8.5 2.6 0 5.2-1.4 6.6-3.8l30.8-51.9c1.9-3.3 1.1-7.3-1.9-9.6l-32.7-24.8zm-30.5-25.6c.6 4.7.8 7.8.8 11 0 3.1-.3 6.4-.8 10.9l-2.2 16.9 13.7 10.5 16.7 12.6-10.8 18.2-19.6-7.7-16-6.3-13.9 10.2c-6.6 4.8-13 8.4-19.3 10.9l-16.3 6.4-2.5 16.9-3.1 20.2h-21.6l-2.9-20.2-2.5-16.9-16.3-6.4c-6.6-2.7-12.8-6.2-19-10.6l-14-10.5-16.3 6.4-19.6 7.7-10.8-18.2 16.7-12.6L68.2 178 66 161c-.5-4.7-.8-8.1-.8-11.1s.3-6.5.8-11l2.2-16.9-13.7-10.5L37.8 99l10.8-18.2 19.6 7.7 16 6.3 13.9-10.2c6.6-4.8 13-8.4 19.3-11l16.3-6.4 2.5-17 3.1-20.2h21.4l2.9 20.2 2.5 17 16.3 6.4c6.6 2.7 12.8 6.2 19 10.7l14 10.5 16.3-6.4 19.6-7.7 10.8 18.2-16.5 12.8-13.7 10.5c0-.1 2.2 16.9 2.2 16.9zM150 90c-34.1 0-61.7 26.8-61.7 60s27.6 60 61.7 60 61.7-26.9 61.7-60-27.6-60-61.7-60zm0 90c-17 0-30.8-13.5-30.8-30s13.9-30 30.8-30 30.8 13.5 30.8 30-13.8 30-30.8 30z" style="fill:#ccc"/></svg>
